<svg width="137" height="43" viewBox="0 0 137 43" fill="none" xmlns="http://www.w3.org/2000/svg">
<path d="M0.96875 0.0546875H10.9062C13.5938 0.0546875 15.6562 0.265625 17.0938 0.6875C18.5469 1.10938 19.6328 1.71875 20.3516 2.51562C21.0859 3.3125 21.5781 4.28125 21.8281 5.42188C22.0938 6.54688 22.2266 8.29688 22.2266 10.6719V13.9766C22.2266 16.3984 21.9766 18.1641 21.4766 19.2734C20.9766 20.3828 20.0547 21.2344 18.7109 21.8281C17.3828 22.4219 15.6406 22.7188 13.4844 22.7188H10.8359V38H0.96875V0.0546875ZM10.8359 6.54688V16.2031C11.1172 16.2188 11.3594 16.2266 11.5625 16.2266C12.4688 16.2266 13.0938 16.0078 13.4375 15.5703C13.7969 15.1172 13.9766 14.1875 13.9766 12.7812V9.66406C13.9766 8.36719 13.7734 7.52344 13.3672 7.13281C12.9609 6.74219 12.1172 6.54688 10.8359 6.54688ZM32.2822 18.9453H23.3994V16.8594C23.3994 14.4531 23.6728 12.6016 24.2197 11.3047C24.7822 9.99219 25.8994 8.83594 27.5713 7.83594C29.2431 6.83594 31.415 6.33594 34.0869 6.33594C37.29 6.33594 39.7041 6.90625 41.3291 8.04688C42.9541 9.17188 43.9306 10.5625 44.2588 12.2188C44.5869 13.8594 44.7509 17.25 44.7509 22.3906V38H35.54V35.2344C34.9619 36.3438 34.2119 37.1797 33.29 37.7422C32.3838 38.2891 31.2978 38.5625 30.0322 38.5625C28.3759 38.5625 26.8525 38.1016 25.4619 37.1797C24.0869 36.2422 23.3994 34.2031 23.3994 31.0625V28.5078C23.3994 26.1797 23.7666 24.5938 24.5009 23.75C25.2353 22.9062 27.0556 21.9219 29.9619 20.7969C33.0713 19.5781 34.7353 18.7578 34.9541 18.3359C35.1728 17.9141 35.2822 17.0547 35.2822 15.7578C35.2822 14.1328 35.1572 13.0781 34.9072 12.5938C34.6728 12.0938 34.2744 11.8438 33.7119 11.8438C33.0713 11.8438 32.6728 12.0547 32.5166 12.4766C32.3603 12.8828 32.2822 13.9531 32.2822 15.6875V18.9453ZM35.2822 23.2109C33.7666 24.3203 32.8838 25.25 32.6338 26C32.3994 26.75 32.2822 27.8281 32.2822 29.2344C32.2822 30.8438 32.3838 31.8828 32.5869 32.3516C32.8056 32.8203 33.2275 33.0547 33.8525 33.0547C34.4463 33.0547 34.8291 32.875 35.0009 32.5156C35.1884 32.1406 35.2822 31.1719 35.2822 29.6094V23.2109ZM77.6347 6.89844L73.8613 38H63.5722C63.0097 34.2031 62.3613 29.2031 61.6269 23C61.3769 25.7188 61.0253 28.4688 60.5722 31.25L59.5175 38H49.2284L45.2206 6.89844H53.3769C53.4394 7.71094 54.1269 13.6406 55.4394 24.6875C55.5331 23.5625 56.2363 17.6328 57.5488 6.89844H65.4003L67.3222 24.6875C67.6191 19.5 68.3378 13.5703 69.4784 6.89844H77.6347Z" fill="#282828"/>
<path d="M90.5966 0.0546875V25.4141C90.5966 29.2109 90.5575 31.6562 90.4794 32.75C90.4013 33.8281 90.0419 34.8047 89.4013 35.6797C88.7763 36.5547 87.9169 37.1641 86.8231 37.5078C85.745 37.8359 84.1122 38 81.9247 38H76.9794V31.3672C77.5731 31.4141 78.0028 31.4375 78.2684 31.4375C78.9716 31.4375 79.5263 31.2656 79.9325 30.9219C80.3388 30.5781 80.5731 30.1562 80.6356 29.6562C80.6981 29.1562 80.7294 28.1875 80.7294 26.75V0.0546875H90.5966ZM114.598 17.8203V25.4375C114.598 28.2344 114.457 30.2891 114.176 31.6016C113.894 32.8984 113.293 34.1172 112.371 35.2578C111.449 36.3828 110.262 37.2188 108.808 37.7656C107.371 38.2969 105.715 38.5625 103.84 38.5625C101.746 38.5625 99.9725 38.3359 98.5194 37.8828C97.0663 37.4141 95.9334 36.7188 95.1209 35.7969C94.3241 34.8594 93.7538 33.7344 93.41 32.4219C93.0663 31.0938 92.8944 29.1094 92.8944 26.4688V18.5C92.8944 15.6094 93.2069 13.3516 93.8319 11.7266C94.4569 10.1016 95.5819 8.79688 97.2069 7.8125C98.8319 6.82812 100.91 6.33594 103.441 6.33594C105.566 6.33594 107.387 6.65625 108.902 7.29688C110.433 7.92188 111.613 8.74219 112.441 9.75781C113.269 10.7734 113.832 11.8203 114.129 12.8984C114.441 13.9766 114.598 15.6172 114.598 17.8203ZM105.129 15.4766C105.129 13.8828 105.043 12.8828 104.871 12.4766C104.699 12.0547 104.332 11.8438 103.769 11.8438C103.207 11.8438 102.832 12.0547 102.644 12.4766C102.457 12.8828 102.363 13.8828 102.363 15.4766V29.5156C102.363 30.9844 102.457 31.9453 102.644 32.3984C102.832 32.8359 103.199 33.0547 103.746 33.0547C104.308 33.0547 104.676 32.8516 104.848 32.4453C105.035 32.0391 105.129 31.1641 105.129 29.8203V15.4766ZM136.606 6.89844L133.887 29.3984C133.466 32.9609 133.106 35.3906 132.809 36.6875C132.528 37.9844 132.052 39.0547 131.38 39.8984C130.708 40.7422 129.77 41.3594 128.567 41.75C127.38 42.1562 125.473 42.3594 122.848 42.3594H117.106V37.3906C118.575 37.3906 119.52 37.3203 119.942 37.1797C120.364 37.0234 120.575 36.6875 120.575 36.1719C120.575 35.9219 120.38 34.8359 119.989 32.9141L114.809 6.89844H123.411L126.505 27.875L128.005 6.89844H136.606Z" fill="#E63538"/>
</svg>
